<?xml version="1.0" encoding="utf-8"?>
<!-- Generator: Adobe Illustrator 16.0.0, SVG Export Plug-In . SVG Version: 6.00 Build 0)  -->
<!DOCTYPE svg PUBLIC "-//W3C//DTD SVG 1.1//EN" "http://www.w3.org/Graphics/SVG/1.1/DTD/svg11.dtd">
<svg version="1.1" id="Layer_9" xmlns="http://www.w3.org/2000/svg" xmlns:xlink="http://www.w3.org/1999/xlink" x="0px" y="0px"
	 width="100px" height="100px" viewBox="0 0 100 100" enable-background="new 0 0 100 100" xml:space="preserve">
<path d="M77.706,0.659c0,0-8.097,7.855-16.853,11.022C-3.989,35.135,23.358,80.84,24.25,80.99c0,0,3.636-6.332,8.548-9.943
	C63.966,48.134,70.301,21.76,70.301,21.76s-6.995,31.736-34.723,51.483c-6.124,4.36-10.271,15.093-12.026,25.82
	c0,0,4.341-1.753,6.208-2.229c0.728-4.75,2.25-9.299,4.823-13.362c38.754,4.614,51.446-26.613,53.104-37.502
	C91.6,20.253,77.706,0.659,77.706,0.659z"/>
</svg>
